<svg width="24" height="24" viewBox="0 0 24 24" fill="none" xmlns="http://www.w3.org/2000/svg">
<g clip-path="url(#clip0_83_77)">
<mask id="mask0_83_77" style="mask-type:alpha" maskUnits="userSpaceOnUse" x="0" y="0" width="24" height="24">
<rect width="24" height="24" fill="#D9D9D9"/>
</mask>
<g mask="url(#mask0_83_77)">
<path d="M11.7193 20L10.455 18.8665C8.98728 17.5441 7.77384 16.4033 6.81471 15.4441C5.85559 14.485 5.09264 13.624 4.52589 12.861C3.95913 12.0981 3.56312 11.3969 3.33787 10.7575C3.11262 10.1181 3 9.46412 3 8.79564C3 7.42961 3.45777 6.28883 4.3733 5.3733C5.28883 4.45777 6.42961 4 7.79564 4C8.55132 4 9.27066 4.15985 9.95368 4.47956C10.6367 4.79927 11.2252 5.24977 11.7193 5.83106C12.2134 5.24977 12.802 4.79927 13.485 4.47956C14.168 4.15985 14.8874 4 15.6431 4C17.0091 4 18.1499 4.45777 19.0654 5.3733C19.9809 6.28883 20.4387 7.42961 20.4387 8.79564C20.4387 9.46412 20.3261 10.1181 20.1008 10.7575C19.8756 11.3969 19.4796 12.0981 18.9128 12.861C18.346 13.624 17.5831 14.485 16.624 15.4441C15.6648 16.4033 14.4514 17.5441 12.9837 18.8665L11.7193 20ZM11.7193 17.6458C13.1144 16.396 14.2625 15.3243 15.1635 14.4305C16.0645 13.5368 16.7766 12.7593 17.2997 12.0981C17.8229 11.4369 18.1862 10.8483 18.3896 10.3324C18.5931 9.81653 18.6948 9.30427 18.6948 8.79564C18.6948 7.92371 18.4042 7.19709 17.8229 6.6158C17.2416 6.03451 16.515 5.74387 15.6431 5.74387C14.96 5.74387 14.3279 5.93642 13.7466 6.32153C13.1653 6.70663 12.7657 7.19709 12.5477 7.79292H10.891C10.673 7.19709 10.2734 6.70663 9.6921 6.32153C9.11081 5.93642 8.47866 5.74387 7.79564 5.74387C6.92371 5.74387 6.19709 6.03451 5.6158 6.6158C5.03451 7.19709 4.74387 7.92371 4.74387 8.79564C4.74387 9.30427 4.8456 9.81653 5.04905 10.3324C5.2525 10.8483 5.6158 11.4369 6.13896 12.0981C6.66213 12.7593 7.37421 13.5368 8.2752 14.4305C9.1762 15.3243 10.3243 16.396 11.7193 17.6458Z" fill="black"/>
</g>
</g>
<defs>
<clipPath id="clip0_83_77">
<rect width="24" height="24" fill="white"/>
</clipPath>
</defs>
</svg>
