<svg width="66" height="67" viewBox="0 0 66 67" fill="none" xmlns="http://www.w3.org/2000/svg">
<path fill-rule="evenodd" clip-rule="evenodd" d="M10.7647 16.5618C20.6233 4.2674 39.5742 -0.723446 51.4719 11.686C63.3696 24.0955 65.3857 39.6437 56.4782 51.3323C46.6197 63.6267 29.3423 66.5305 15.7711 56.2081C2.19981 45.8857 0.140085 29.886 10.7647 16.5618ZM34.7444 11.5614C33.749 11.5614 32.9421 12.3517 32.9421 13.3267L31.1399 34.5107L31.0977 15.9747C31.0977 14.9997 30.2908 14.2094 29.2955 14.2094C28.3001 14.2094 27.4932 14.9997 27.4932 15.9747L25.7316 34.5107V22.1534C25.7316 21.1784 24.9248 20.388 23.9294 20.388C22.9341 20.388 22.1272 21.1784 22.1272 22.1534L22.1289 44.2201C22.1289 49.5824 26.5667 53.9294 32.041 53.9294C32.4398 53.9294 32.833 53.9063 33.2194 53.8615L34.2498 53.8021C41.6116 53.378 47.3599 47.4064 47.3599 40.1828L47.366 29.0083C47.366 28.1473 46.6534 27.4494 45.7745 27.4494C45.6453 27.4494 45.5272 27.5209 45.4695 27.634C45.4695 27.634 42.7498 34.6152 41.9532 34.5107C41.1566 34.4063 41.9532 15.092 41.9532 15.092C41.9532 14.1171 41.1463 13.3267 40.151 13.3267C39.1557 13.3267 38.3488 14.1171 38.3488 15.092L36.5466 34.5107V13.3267C36.5466 12.3517 35.7397 11.5614 34.7444 11.5614Z" fill="#AA996F"/>
</svg>
