<svg width="24" height="24" viewBox="0 0 24 24" fill="none" xmlns="http://www.w3.org/2000/svg">
<path fill-rule="evenodd" clip-rule="evenodd" d="M8.97658 5.33333C9.20347 5.72556 9.33333 6.18095 9.33333 6.66667C9.33333 8.13943 8.13943 9.33333 6.66667 9.33333C5.19391 9.33333 4 8.13943 4 6.66667C4 5.19391 5.19391 4 6.66667 4H17.3333C18.8061 4 20 5.19391 20 6.66667C20 8.13943 18.8061 9.33333 17.3333 9.33333C15.8606 9.33333 14.6667 8.13943 14.6667 6.66667C14.6667 6.18095 14.7965 5.72556 15.0234 5.33333H12.6667V12H17.3333C18.8061 12 20 13.1939 20 14.6667C20 16.1394 18.8061 17.3333 17.3333 17.3333C15.8606 17.3333 14.6667 16.1394 14.6667 14.6667C14.6667 14.181 14.7965 13.7256 15.0234 13.3333H12.6667V18.6667H15.3333V20H8.66667V18.6667H11.3333V13.3333H6.66667V12H11.3333V5.33333H8.97658ZM6.66667 8C7.40305 8 8 7.40305 8 6.66667C8 5.93029 7.40305 5.33333 6.66667 5.33333C5.93029 5.33333 5.33333 5.93029 5.33333 6.66667C5.33333 7.40305 5.93029 8 6.66667 8ZM17.3333 5.33333C16.597 5.33333 16 5.93029 16 6.66667C16 7.40305 16.597 8 17.3333 8C18.0697 8 18.6667 7.40305 18.6667 6.66667C18.6667 5.93029 18.0697 5.33333 17.3333 5.33333ZM18.6667 14.6667C18.6667 15.403 18.0697 16 17.3333 16C16.597 16 16 15.403 16 14.6667C16 13.9303 16.597 13.3333 17.3333 13.3333C18.0697 13.3333 18.6667 13.9303 18.6667 14.6667Z" fill="#2C2C35"/>
</svg>
